PathFileType	4	(X/Y/Z)	C:/Users/opensim2020/Desktop/walking_exp_matlab/subject02_walking12_straight_01.trc	
DataRate	CameraRate	NumFrames	NumMarkers	Units	OrigDataRate	OrigDataStartFrame	OrigNumFrames	
100.00	100.00	9	42	mm	100.00	652	178	
Frame#	Time	LFHD			RFHD			LBHD			RBHD			C7			T10			CLAV			STRN			RBAK			LSHO			LUPA			LELB			LFRM			LWRA			LWRB			LFIN			RSHO			RUPA			RELB			RFRM			RWRA			RWRB			RFIN			LASI			RASI			LPSI			RPSI			LTHI			LKNE			LTIB			LANK			LHEE			LTOE			RTHI			RKNE			RTIB			RANK			RHEE			RTOE			*39			*40			*41			
		X1	Y1	Z1	X2	Y2	Z2	X3	Y3	Z3	X4	Y4	Z4	X5	Y5	Z5	X6	Y6	Z6	X7	Y7	Z7	X8	Y8	Z8	X9	Y9	Z9	X10	Y10	Z10	X11	Y11	Z11	X12	Y12	Z12	X13	Y13	Z13	X14	Y14	Z14	X15	Y15	Z15	X16	Y16	Z16	X17	Y17	Z17	X18	Y18	Z18	X19	Y19	Z19	X20	Y20	Z20	X21	Y21	Z21	X22	Y22	Z22	X23	Y23	Z23	X24	Y24	Z24	X25	Y25	Z25	X26	Y26	Z26	X27	Y27	Z27	X28	Y28	Z28	X29	Y29	Z29	X30	Y30	Z30	X31	Y31	Z31	X32	Y32	Z32	X33	Y33	Z33	X34	Y34	Z34	X35	Y35	Z35	X36	Y36	Z36	X37	Y37	Z37	X38	Y38	Z38	X39	Y39	Z39	X40	Y40	Z40	X41	Y41	Z41	X42	Y42	Z42	

156	1.550	-1046.49414	664.64856	1740.66577	-909.39227	623.60004	1715.54199	-1095.66492	543.78107	1664.67444	-963.89850	491.44760	1638.30750	-1026.52490	469.43750	1520.31152	-1016.62238	418.94446	1243.43872	-1030.35779	610.62598	1453.95691	-1011.78607	662.65820	1282.85583	-957.86127	410.37662	1347.96570	-1202.43530	545.50458	1488.96692	-1278.56958	484.72607	1297.41028	-1285.28015	442.57733	1164.21558	-1301.00183	404.84692	1039.44788	-1268.62024	405.23376	900.67267	-1307.39050	369.20493	921.14612	-1307.37292	357.34454	854.24353	-837.74310	538.64191	1494.99561	-739.08539	528.17529	1311.99231	-708.96320	563.91669	1167.76770	-700.10522	633.07446	1066.29395	-731.29785	721.46704	968.58624	-695.87573	682.90631	945.82855	-698.40277	742.42297	904.75879	-1132.07507	664.43591	987.63367	-876.80933	634.11737	965.42175	-1074.12073	446.46085	1029.81787	-960.51910	429.29465	1027.58923	-1213.99634	667.97290	689.19666	-1189.02563	712.42249	496.36566	-1199.43176	722.09180	302.88150	-1184.62317	806.53772	90.76774	-1133.72412	783.22968	51.55490	-1190.58203	963.27136	103.67294	-849.65717	517.40759	658.09308	-908.55396	482.17300	453.48233	-915.06891	404.34604	280.65207	-968.32361	347.95996	97.84880	-1026.84644	305.50745	48.16232	-953.90686	493.22601	39.51449	-987.10309	539.55750	1800.45850	-3360.38867	2845.22803	1034.27271			 
157	1.560	-1046.83801	677.34985	1738.76233	-910.02161	636.20227	1713.86963	-1096.09753	556.98395	1662.04883	-964.04926	504.97665	1635.72827	-1026.46033	482.97266	1518.17126	-1017.64655	432.33377	1241.53699	-1030.10266	624.27429	1451.67273	-1011.03149	675.97717	1280.54980	-958.38495	423.56259	1345.83276	-1202.42236	559.42194	1486.77600	-1278.40955	495.40924	1296.49292	-1284.78088	451.03082	1164.10510	-1300.41895	410.67618	1040.18530	-1268.21411	408.22723	901.13385	-1306.68738	372.39880	922.51770	-1306.66138	358.95868	855.82935	-837.67145	551.65710	1492.97144	-738.48621	541.76208	1310.37708	-707.81885	578.23749	1166.43689	-699.49310	649.59351	1066.29114	-731.00690	740.03918	970.58105	-695.68152	702.28577	946.71448	-698.42206	762.14447	907.13336	-1131.36719	679.13367	985.12500	-876.29236	645.05450	963.38501	-1075.11096	460.12881	1026.72827	-962.12122	441.57471	1024.64929	-1214.94910	680.18542	687.04944	-1189.60034	728.80072	494.68399	-1201.00732	745.80499	302.00745	-1185.97375	837.74237	92.85223	-1135.77881	814.47003	52.20216	-1186.83240	994.30682	110.75952	-849.38867	524.68335	656.94995	-908.42242	487.49457	452.76779	-915.41278	406.76071	281.27432	-969.13831	348.63293	98.99444	-1028.23901	306.31226	49.52335	-953.70209	493.40970	39.47680	-987.94550	551.86121	1798.18677	-3360.43506	2845.24536	1034.16663			 
158	1.570	-1047.34436	690.11115	1736.83569	-910.16858	649.01801	1712.19470	-1096.43188	570.19128	1659.30847	-964.49646	518.02966	1633.22314	-1026.63354	496.36826	1515.93396	-1018.60992	445.70056	1239.33264	-1029.91614	637.93262	1449.27917	-1010.36963	689.26385	1278.09106	-958.90503	436.68231	1343.70740	-1202.27039	573.23743	1484.26074	-1277.59375	506.45117	1295.27405	-1283.72046	459.86099	1163.49573	-1299.89600	416.96213	1040.66357	-1267.89282	411.84195	901.57300	-1306.12134	376.44531	923.70728	-1305.99963	361.53473	857.36401	-837.71454	564.81018	1490.71472	-738.07874	554.92578	1308.30212	-706.67993	592.48718	1164.69348	-698.83575	665.59924	1065.82336	-730.93231	757.89868	972.21906	-695.77515	720.60889	947.40149	-698.78949	781.37091	909.11993	-1130.62915	693.94836	982.86578	-875.31250	657.60278	961.91943	-1076.13147	473.94260	1023.59723	-963.66620	453.92010	1021.70343	-1215.87805	693.51166	685.27545	-1190.06555	745.88062	493.19025	-1202.83716	768.49512	301.37277	-1187.22021	866.59991	94.81847	-1138.32227	842.75848	53.11440	-1183.13696	1022.65894	116.66455	-849.32141	532.16425	655.81812	-908.33942	493.00992	452.04630	-916.24463	409.46875	281.82040	-970.16290	349.42203	100.14925	-1029.75720	307.00461	51.14567	-953.52228	493.55722	39.36309	-988.75299	564.32062	1795.95276	-3360.38257	2845.17285	1034.18250			 
159	1.580	-1047.86902	702.82910	1734.75708	-910.55603	661.65479	1710.52332	-1096.82922	583.44965	1656.55701	-964.50208	530.86523	1630.37756	-1026.78210	509.84628	1513.60229	-1019.51135	459.09457	1237.07495	-1029.76575	651.53680	1446.85657	-1009.82983	702.65375	1275.69336	-959.47241	449.73892	1341.50427	-1202.19666	587.22211	1481.87598	-1277.66614	517.90222	1294.13281	-1283.03796	469.17535	1163.00403	-1299.39734	423.98904	1041.11865	-1267.73462	416.69019	901.94360	-1305.58997	381.37311	924.82959	-1305.30896	365.08093	858.73590	-837.79175	577.99915	1488.37439	-737.66199	568.31171	1306.28723	-705.79498	606.41663	1162.95520	-698.48401	681.27783	1065.32153	-730.92065	775.36053	973.63391	-695.93488	738.35498	947.93964	-698.92102	799.96936	910.89655	-1129.78845	708.80731	980.89130	-874.52277	669.75854	960.02948	-1077.04968	487.90491	1020.62036	-965.26514	466.39294	1018.90302	-1216.30725	708.48712	683.71954	-1190.48010	763.50543	491.97098	-1204.81616	790.23761	300.93680	-1188.57690	892.82013	96.47217	-1140.84485	869.03296	53.29790	-1179.14148	1048.36670	120.97556	-849.26984	539.64014	654.89044	-908.19318	499.08008	451.26706	-917.11230	412.73001	282.56509	-971.34088	350.37103	101.66942	-1031.43799	308.08548	53.11265	-953.36987	493.75491	39.25938	-989.76355	576.57666	1793.40356	-3357.34766	2845.76807	1034.31250			 
160	1.590	-1048.30029	715.83075	1732.83997	-911.36993	674.33374	1708.39111	-1097.13232	596.72308	1653.80688	-965.29047	544.04913	1628.06543	-1026.93286	523.18158	1511.32886	-1020.26093	472.45184	1234.65442	-1029.64868	665.09918	1444.42566	-1009.38934	716.02557	1273.31165	-960.01978	462.90671	1339.45642	-1202.09705	601.14374	1479.43054	-1277.07251	529.62842	1292.65491	-1282.59277	479.08057	1162.43884	-1299.33862	431.77847	1041.49634	-1267.76404	422.46021	902.18750	-1305.19775	387.23074	925.79834	-1304.70508	369.56122	859.92218	-837.90546	591.10309	1485.99194	-737.51807	581.36768	1303.90576	-704.87573	620.36578	1160.89050	-698.07983	696.85059	1064.46643	-730.92255	792.31183	974.78284	-695.91815	756.03418	948.16193	-698.97083	818.39087	912.58057	-1128.87488	723.68408	979.23389	-873.98840	681.74670	957.89807	-1078.15063	502.22598	1017.87469	-966.88104	479.02802	1016.39532	-1216.24268	725.29175	682.45911	-1190.75085	781.77356	491.02463	-1206.87793	811.13995	300.70358	-1189.91394	916.27222	97.56705	-1143.31506	891.32928	53.67635	-1175.66467	1071.18298	123.66402	-849.44824	547.56616	654.12976	-908.05975	505.65396	450.66702	-918.04364	416.41464	283.34589	-972.24939	351.40994	103.50307	-1032.53870	309.08649	55.34393	-953.23737	493.92886	39.17257	-990.43848	589.22369	1791.08313	-3357.40063	2845.79053	1034.36951			 
161	1.600	-1048.71948	728.80432	1730.85266	-911.62280	687.32941	1706.73230	-1097.52051	610.03687	1651.22034	-965.59900	557.48956	1625.22644	-1027.40088	536.54767	1508.99927	-1020.95966	485.97284	1232.60681	-1029.69824	678.78333	1442.10242	-1009.14423	729.47778	1271.03455	-960.64893	476.10632	1337.37512	-1202.39746	615.32831	1477.36255	-1277.19751	541.78461	1291.32947	-1282.17834	489.60098	1161.71460	-1298.59827	440.44000	1041.38757	-1267.83826	429.18994	902.26593	-1305.02161	394.05704	926.52161	-1304.18652	375.07034	860.95422	-837.95453	604.28333	1483.41895	-737.43408	594.76190	1301.64307	-704.20642	634.11084	1158.78723	-697.61658	711.99158	1063.46948	-730.96283	809.29602	975.70624	-696.05731	773.06122	948.27124	-699.16345	836.03497	913.91260	-1127.88281	738.64697	977.77728	-872.94360	694.33929	955.77979	-1079.30518	516.66223	1015.43536	-968.50671	491.96530	1014.19055	-1215.69470	744.05322	681.62769	-1190.90430	800.47693	490.39145	-1209.07068	831.15533	300.66119	-1191.18018	936.69458	97.86845	-1145.55078	911.43604	52.97893	-1172.83752	1091.06104	124.69315	-849.64276	555.86230	653.39319	-907.81799	513.29761	449.85870	-918.77509	420.67358	284.38766	-972.49457	352.61960	105.58643	-1033.23108	310.02151	58.30426	-952.98724	494.11844	39.05948	-991.08478	601.88129	1788.73596	-3360.28955	2845.22705	1034.36401			 
162	1.610	-1049.02148	741.64746	1728.94336	-911.94141	700.21643	1705.04993	-1097.80615	623.35565	1648.81946	-965.92181	570.77661	1622.91272	-1027.64368	550.03278	1506.96423	-1021.58966	499.46729	1230.36719	-1029.70190	692.31781	1439.94116	-1009.01202	743.00183	1268.96460	-961.22980	489.70532	1335.17871	-1202.49500	629.30096	1475.11658	-1277.25415	554.44946	1289.95715	-1282.21265	500.84167	1160.97681	-1298.73633	449.82330	1041.52258	-1268.08057	436.90732	902.21234	-1304.98889	401.93787	927.06610	-1303.71680	381.63416	861.69635	-838.12872	617.53827	1481.02783	-737.53839	607.68323	1299.20691	-703.78912	647.59833	1156.67212	-697.45856	726.70129	1062.44336	-731.11993	825.17883	976.32831	-696.21686	789.46875	948.16052	-699.35547	853.07739	914.99640	-1126.89148	753.76929	976.65350	-872.25281	706.91943	953.46289	-1080.57800	531.14832	1013.37494	-970.23560	506.02188	1012.11670	-1215.01575	764.28674	681.40491	-1191.02539	819.09167	490.10962	-1211.05042	850.25934	300.74963	-1192.35083	954.30902	97.35126	-1147.98572	927.99750	52.02302	-1170.71045	1108.12646	123.97037	-849.89258	564.93475	652.49457	-907.32983	521.10071	449.06683	-918.66193	425.21548	285.56665	-972.30774	353.90274	108.10964	-1033.15491	310.93927	61.68278	-952.76678	494.27292	38.89861	-991.67358	614.61737	1786.54822	-3357.22021	2845.91113	1034.19629			 
163	1.620	-1049.24829	754.78638	1727.20752	-912.07758	713.21381	1703.51941	-1098.09766	636.68707	1646.63611	-966.14636	583.88013	1621.04541	-1028.40222	563.30267	1504.90186	-1022.22089	512.98047	1228.41907	-1029.81702	705.91162	1438.00134	-1008.97626	756.62994	1267.17993	-961.97827	502.67847	1333.39478	-1202.78052	643.33099	1473.18884	-1277.04785	567.36481	1288.39075	-1281.81189	512.66589	1159.94312	-1298.91907	460.43796	1041.21167	-1268.33545	445.71414	901.94714	-1305.08459	410.90759	927.36938	-1303.39417	389.35513	862.28516	-838.13708	630.38593	1478.68298	-737.85889	620.55432	1296.84766	-703.60168	660.86554	1154.56653	-697.45770	741.23492	1061.26318	-731.05688	840.63342	976.55170	-696.64099	805.29730	947.88031	-699.51965	869.56171	915.80084	-1126.00928	769.22571	975.72815	-871.60944	719.81384	951.22589	-1081.97449	545.93439	1011.59998	-971.85687	519.85431	1010.25928	-1214.11169	785.15369	681.77606	-1191.14478	837.73718	490.08063	-1212.77039	868.10571	300.74008	-1193.54089	969.40173	96.14932	-1150.26965	941.46985	50.87864	-1169.02319	1122.76221	121.53132	-849.87958	575.15900	651.72546	-906.52240	530.20496	448.34067	-918.18268	430.62051	286.83405	-971.56451	355.38181	111.02499	-1032.41565	311.70313	65.58687	-952.47363	494.48572	38.81975	-992.14221	627.38342	1784.45483	-3360.32739	2845.24609	1034.26978			 
164	1.630	-1049.44666	767.87213	1725.59399	-912.27850	726.17023	1701.95105	-1098.38416	650.00244	1644.70483	-966.51483	597.21472	1619.30249	-1028.76123	576.74249	1503.15955	-1022.88739	526.68982	1226.70349	-1029.93457	719.45953	1436.27539	-1008.94232	770.25812	1265.56628	-962.68994	516.35168	1331.32983	-1203.20654	657.38159	1471.52734	-1277.19873	580.74939	1286.81726	-1281.75928	525.19916	1158.90747	-1299.18896	471.88037	1040.81873	-1268.68372	455.62778	901.58911	-1305.34839	421.10440	927.45819	-1303.20593	398.30743	862.64215	-838.20966	642.65686	1476.49792	-738.33008	633.09802	1294.52588	-703.58142	674.15399	1152.47058	-697.51483	755.35596	1060.10779	-731.18542	855.75317	976.69464	-696.96350	820.66467	947.40558	-699.57391	885.23749	916.29309	-1125.23206	784.92731	974.93457	-871.00928	732.56476	948.75409	-1083.39905	560.83685	1009.90741	-973.43604	534.02240	1008.50006	-1212.68738	806.37024	682.78516	-1191.13220	856.20172	490.02896	-1214.06201	884.64032	300.33408	-1194.66199	982.22906	94.29802	-1151.88538	953.16541	48.86980	-1167.73572	1135.27087	117.91035	-849.87170	586.34998	650.67084	-905.53149	540.15082	447.71280	-917.45758	437.16528	288.42227	-970.43066	357.63107	114.51006	-1031.47961	312.43390	70.69633	-952.12781	494.65292	38.72910	-992.67615	640.26971	1782.67822						 
